<svg width="80" height="81" viewBox="0 0 80 81" fill="none" xmlns="http://www.w3.org/2000/svg">
<g clip-path="url(#clip0_1386_866)">
<path d="M14.1667 0.268561H65.8333C67.6942 0.266762 69.5372 0.641362 71.2568 1.37092C72.9763 2.10048 74.5387 3.17068 75.8546 4.52026C77.1704 5.86985 78.2139 7.47233 78.9252 9.23599C79.6365 10.9997 80.0018 12.8899 80 14.7985V65.7386C80.0018 67.6472 79.6365 69.5375 78.9252 71.3011C78.2139 73.0648 77.1704 74.6673 75.8546 76.0168C74.5387 77.3664 72.9763 78.4366 71.2568 79.1662C69.5372 79.8958 67.6942 80.2703 65.8333 80.2685H14.1667C12.3058 80.2703 10.4628 79.8958 8.74325 79.1662C7.02368 78.4366 5.46126 77.3664 4.14542 76.0168C2.82957 74.6673 1.78613 73.0648 1.07481 71.3011C0.363487 69.5375 -0.00174761 67.6472 6.28692e-06 65.7386V14.7985C-0.00174761 12.8899 0.363487 10.9997 1.07481 9.23599C1.78613 7.47233 2.82957 5.86985 4.14542 4.52026C5.46126 3.17068 7.02368 2.10048 8.74325 1.37092C10.4628 0.641362 12.3058 0.266762 14.1667 0.268561V0.268561Z" fill="#000B1D"/>
<path d="M32.3333 64.6686C36.9357 64.6686 40.6667 60.9376 40.6667 56.3352V48.0019H32.3333C27.731 48.0019 24 51.7329 24 56.3352C24 60.9376 27.731 64.6686 32.3333 64.6686Z" fill="#0ACF83"/>
<path d="M24 39.6686C24 35.0662 27.731 31.3353 32.3333 31.3353H40.6667V48.0019H32.3333C27.731 48.0019 24 44.271 24 39.6686Z" fill="#A259FF"/>
<path d="M24 23.0019C24 18.3995 27.731 14.6686 32.3333 14.6686H40.6667V31.3352H32.3333C27.731 31.3352 24 27.6043 24 23.0019Z" fill="#F24E1E"/>
<path d="M40.667 14.6686H49.0003C53.6027 14.6686 57.3337 18.3995 57.3337 23.0019C57.3337 27.6043 53.6027 31.3352 49.0003 31.3352H40.667V14.6686Z" fill="#FF7262"/>
<path d="M57.3337 39.6686C57.3337 44.271 53.6027 48.0019 49.0003 48.0019C44.398 48.0019 40.667 44.271 40.667 39.6686C40.667 35.0662 44.398 31.3353 49.0003 31.3353C53.6027 31.3353 57.3337 35.0662 57.3337 39.6686Z" fill="#1ABCFE"/>
</g>
<defs>
<clipPath id="clip0_1386_866">
<rect width="80" height="80" fill="white" transform="translate(0 0.268555)"/>
</clipPath>
</defs>
</svg>
