<svg width="80" height="81" viewBox="0 0 80 81" fill="none" xmlns="http://www.w3.org/2000/svg">
<path d="M14.1667 0.268561L65.8333 0.268561C67.6942 0.266762 69.5372 0.641362 71.2567 1.37092C72.9763 2.10048 74.5387 3.17068 75.8546 4.52026C77.1704 5.86985 78.2139 7.47233 78.9252 9.23599C79.6365 10.9997 80.0017 12.8899 80 14.7985V65.7386C80.0017 67.6472 79.6365 69.5375 78.9252 71.3011C78.2139 73.0648 77.1704 74.6673 75.8546 76.0168C74.5387 77.3664 72.9763 78.4366 71.2567 79.1662C69.5372 79.8958 67.6942 80.2703 65.8333 80.2685H14.1667C12.3058 80.2703 10.4628 79.8958 8.74325 79.1662C7.02368 78.4366 5.46126 77.3664 4.14541 76.0168C2.82957 74.6673 1.78613 73.0648 1.07481 71.3011C0.363487 69.5375 -0.00174761 67.6472 6.28692e-06 65.7386L6.28692e-06 14.7985C-0.00174761 12.8899 0.363487 10.9997 1.07481 9.23599C1.78613 7.47233 2.82957 5.86985 4.14541 4.52026C5.46126 3.17068 7.02368 2.10048 8.74325 1.37092C10.4628 0.641362 12.3058 0.266762 14.1667 0.268561V0.268561Z" fill="#000B1D"/>
<path d="M14.1667 0.268561L65.8333 0.268561C67.6942 0.266762 69.5372 0.641362 71.2567 1.37092C72.9763 2.10048 74.5387 3.17068 75.8546 4.52026C77.1704 5.86985 78.2139 7.47233 78.9252 9.23599C79.6365 10.9997 80.0017 12.8899 80 14.7985V65.7386C80.0017 67.6472 79.6365 69.5375 78.9252 71.3011C78.2139 73.0648 77.1704 74.6673 75.8546 76.0168C74.5387 77.3664 72.9763 78.4366 71.2567 79.1662C69.5372 79.8958 67.6942 80.2703 65.8333 80.2685H14.1667C12.3058 80.2703 10.4628 79.8958 8.74325 79.1662C7.02368 78.4366 5.46126 77.3664 4.14541 76.0168C2.82957 74.6673 1.78613 73.0648 1.07481 71.3011C0.363487 69.5375 -0.00174761 67.6472 6.28692e-06 65.7386L6.28692e-06 14.7985C-0.00174761 12.8899 0.363487 10.9997 1.07481 9.23599C1.78613 7.47233 2.82957 5.86985 4.14541 4.52026C5.46126 3.17068 7.02368 2.10048 8.74325 1.37092C10.4628 0.641362 12.3058 0.266762 14.1667 0.268561V0.268561Z" fill="#000B1D"/>
<path d="M65.78 18.5159L54.3474 13.0113C53.024 12.3741 51.4426 12.6429 50.404 13.6814L12.9779 47.8053C11.9712 48.7231 11.9724 50.308 12.9804 51.2243L16.0375 54.0035C16.8616 54.7527 18.1027 54.8079 18.9899 54.1348L64.0597 19.9439C65.5717 18.7968 67.7434 19.8753 67.7434 21.7732V21.6404C67.7434 20.3082 66.9803 19.0938 65.78 18.5159Z" fill="#0065A9"/>
<g filter="url(#filter0_d_1386_885)">
<path d="M65.78 62.0212L54.3474 67.5258C53.024 68.163 51.4426 67.8942 50.404 66.8556L12.9779 32.7318C11.9712 31.8139 11.9724 30.229 12.9804 29.3127L16.0375 26.5335C16.8616 25.7843 18.1027 25.7292 18.9899 26.4023L64.0597 60.5931C65.5717 61.7402 67.7434 60.6618 67.7434 58.7639V58.8967C67.7434 60.2288 66.9803 61.4432 65.78 62.0212Z" fill="#007ACC"/>
</g>
<g filter="url(#filter1_d_1386_885)">
<path d="M54.3481 67.5269C53.0244 68.1637 51.4429 67.8943 50.4043 66.8557C51.684 68.1354 53.8722 67.229 53.8722 65.4192V15.1179C53.8722 13.3081 51.684 12.4018 50.4043 13.6815C51.4429 12.6429 53.0244 12.3737 54.3481 13.0103L65.7788 18.5074C66.9799 19.085 67.7437 20.2998 67.7437 21.6326V58.9048C67.7437 60.2375 66.9799 61.4524 65.7787 62.03L54.3481 67.5269Z" fill="#1F9CF0"/>
</g>
<g style="mix-blend-mode:overlay" opacity="0.25">
<path style="mix-blend-mode:overlay" fill-rule="evenodd" clip-rule="evenodd" d="M51.5699 67.6328C52.4438 67.9732 53.4403 67.9514 54.3223 67.5269L65.7459 62.0301C66.9463 61.4525 67.7097 60.2376 67.7097 58.9048V21.6327C67.7097 20.2999 66.9464 19.085 65.746 18.5074L54.3223 13.0104C53.1648 12.4534 51.81 12.5898 50.7939 13.3284C50.6488 13.4339 50.5106 13.5517 50.3809 13.6816L28.5116 33.6333L18.9858 26.4024C18.0991 25.7293 16.8587 25.7845 16.0352 26.5336L12.9799 29.3128C11.9725 30.2292 11.9714 31.8141 12.9774 32.7319L21.2385 40.2686L12.9774 47.8054C11.9714 48.7233 11.9725 50.3081 12.9799 51.2245L16.0352 54.0037C16.8587 54.7528 18.0991 54.808 18.9858 54.1349L28.5116 46.904L50.3809 66.8557C50.7268 67.2019 51.133 67.4626 51.5699 67.6328ZM53.8466 27.6727L37.2529 40.2686L53.8466 52.8646V27.6727Z" fill="url(#paint0_linear_1386_885)"/>
</g>
<defs>
<filter id="filter0_d_1386_885" x="3.89029" y="17.5989" width="72.1862" height="58.6025" filterUnits="userSpaceOnUse" color-interpolation-filters="sRGB">
<feFlood flood-opacity="0" result="BackgroundImageFix"/>
<feColorMatrix in="SourceAlpha" type="matrix" values="0 0 0 0 0 0 0 0 0 0 0 0 0 0 0 0 0 0 127 0" result="hardAlpha"/>
<feOffset/>
<feGaussianBlur stdDeviation="4.16667"/>
<feColorMatrix type="matrix" values="0 0 0 0 0 0 0 0 0 0 0 0 0 0 0 0 0 0 0.25 0"/>
<feBlend mode="overlay" in2="BackgroundImageFix" result="effect1_dropShadow_1386_885"/>
<feBlend mode="normal" in="SourceGraphic" in2="effect1_dropShadow_1386_885" result="shape"/>
</filter>
<filter id="filter1_d_1386_885" x="42.071" y="4.33524" width="34.0065" height="71.8668" filterUnits="userSpaceOnUse" color-interpolation-filters="sRGB">
<feFlood flood-opacity="0" result="BackgroundImageFix"/>
<feColorMatrix in="SourceAlpha" type="matrix" values="0 0 0 0 0 0 0 0 0 0 0 0 0 0 0 0 0 0 127 0" result="hardAlpha"/>
<feOffset/>
<feGaussianBlur stdDeviation="4.16667"/>
<feColorMatrix type="matrix" values="0 0 0 0 0 0 0 0 0 0 0 0 0 0 0 0 0 0 0.25 0"/>
<feBlend mode="overlay" in2="BackgroundImageFix" result="effect1_dropShadow_1386_885"/>
<feBlend mode="normal" in="SourceGraphic" in2="effect1_dropShadow_1386_885" result="shape"/>
</filter>
<linearGradient id="paint0_linear_1386_885" x1="39.9667" y1="12.6686" x2="39.9667" y2="67.8687" gradientUnits="userSpaceOnUse">
<stop stop-color="white"/>
<stop offset="1" stop-color="white" stop-opacity="0"/>
</linearGradient>
</defs>
</svg>
