<svg width="138" height="118" viewBox="0 0 138 118" fill="none" xmlns="http://www.w3.org/2000/svg">
<g clip-path="url(#clip0_1383_740)">
<path d="M110 3.00003H130C132.761 3.00003 135 5.23861 135 8.00003V28" stroke="white" stroke-width="6" stroke-linecap="round"/>
<path d="M3 28V8C3 5.23858 5.23858 3 8 3H28" stroke="white" stroke-width="6" stroke-linecap="round"/>
<path d="M28 115H8C5.23858 115 3 112.761 3 110V90" stroke="white" stroke-width="6" stroke-linecap="round"/>
<path d="M135 90V110C135 112.761 132.761 115 130 115H110" stroke="white" stroke-width="6" stroke-linecap="round"/>
<path d="M84 20H54C50.134 20 47 23.134 47 27V91C47 94.866 50.134 98 54 98H84C87.866 98 91 94.866 91 91V27C91 23.134 87.866 20 84 20Z" stroke="white" stroke-width="2"/>
<path d="M74 22H64C63.4477 22 63 22.4477 63 23C63 23.5523 63.4477 24 64 24H74C74.5523 24 75 23.5523 75 23C75 22.4477 74.5523 22 74 22Z" fill="white"/>
<path d="M76.25 94H61.75C61.3358 94 61 94.3358 61 94.75C61 95.1642 61.3358 95.5 61.75 95.5H76.25C76.6642 95.5 77 95.1642 77 94.75C77 94.3358 76.6642 94 76.25 94Z" fill="white"/>
<path d="M58 85H53C52.4477 85 52 85.4477 52 86V91C52 91.5523 52.4477 92 53 92H58C58.5523 92 59 91.5523 59 91V86C59 85.4477 58.5523 85 58 85Z" fill="#0ACF83"/>
<path d="M65.7143 29H54.2857C53.0233 29 52 30.0233 52 31.2857V42.7143C52 43.9767 53.0233 45 54.2857 45H65.7143C66.9767 45 68 43.9767 68 42.7143V31.2857C68 30.0233 66.9767 29 65.7143 29Z" fill="white"/>
<path d="M67 85H62C61.4477 85 61 85.4477 61 86V91C61 91.5523 61.4477 92 62 92H67C67.5523 92 68 91.5523 68 91V86C68 85.4477 67.5523 85 67 85Z" fill="#6CACE4"/>
<path d="M76 30H71C70.4477 30 70 30.4477 70 31V36C70 36.5523 70.4477 37 71 37H76C76.5523 37 77 36.5523 77 36V31C77 30.4477 76.5523 30 76 30Z" fill="#00FF38"/>
<path d="M85 30H80C79.4477 30 79 30.4477 79 31V36C79 36.5523 79.4477 37 80 37H85C85.5523 37 86 36.5523 86 36V31C86 30.4477 85.5523 30 85 30Z" fill="#0094FF"/>
<path d="M76 85H71C70.4477 85 70 85.4477 70 86V91C70 91.5523 70.4477 92 71 92H76C76.5523 92 77 91.5523 77 91V86C77 85.4477 76.5523 85 76 85Z" fill="#A259FF"/>
<path d="M85 85H80C79.4477 85 79 85.4477 79 86V91C79 91.5523 79.4477 92 80 92H85C85.5523 92 86 91.5523 86 91V86C86 85.4477 85.5523 85 85 85Z" fill="#FF7262"/>
<path d="M54.9844 38.4434H55.043C55.3125 38.4434 55.5371 38.4082 55.7168 38.3379C55.8984 38.2656 56.043 38.166 56.1504 38.0391C56.2578 37.9121 56.335 37.7627 56.3818 37.5908C56.4287 37.4189 56.4521 37.2324 56.4521 37.0312V36.2959C56.4521 36.1221 56.4336 35.9697 56.3965 35.8389C56.3613 35.7061 56.3105 35.5957 56.2441 35.5078C56.1797 35.418 56.1045 35.3506 56.0186 35.3057C55.9346 35.2607 55.8438 35.2383 55.7461 35.2383C55.6387 35.2383 55.542 35.2627 55.4561 35.3115C55.3721 35.3584 55.3008 35.4238 55.2422 35.5078C55.1855 35.5898 55.1416 35.6865 55.1104 35.7979C55.0811 35.9072 55.0664 36.0244 55.0664 36.1494C55.0664 36.2666 55.0801 36.3799 55.1074 36.4893C55.1367 36.5967 55.1797 36.6924 55.2363 36.7764C55.293 36.8604 55.3643 36.9268 55.4502 36.9756C55.5361 37.0244 55.6367 37.0488 55.752 37.0488C55.8613 37.0488 55.9619 37.0283 56.0537 36.9873C56.1455 36.9443 56.2256 36.8867 56.2939 36.8145C56.3623 36.7422 56.416 36.6611 56.4551 36.5713C56.4941 36.4814 56.5156 36.3896 56.5195 36.2959L56.7891 36.3779C56.7891 36.5264 56.7578 36.6729 56.6953 36.8174C56.6348 36.96 56.5498 37.0908 56.4404 37.21C56.333 37.3271 56.207 37.4209 56.0625 37.4912C55.9199 37.5615 55.7646 37.5967 55.5967 37.5967C55.3936 37.5967 55.2139 37.5586 55.0576 37.4824C54.9033 37.4043 54.7744 37.2988 54.6709 37.166C54.5693 37.0332 54.4932 36.8809 54.4424 36.709C54.3916 36.5371 54.3662 36.3564 54.3662 36.167C54.3662 35.9619 54.3975 35.7695 54.46 35.5898C54.5225 35.4102 54.6133 35.252 54.7324 35.1152C54.8516 34.9766 54.9961 34.8691 55.166 34.793C55.3379 34.7148 55.5322 34.6758 55.749 34.6758C55.9795 34.6758 56.1816 34.7207 56.3555 34.8105C56.5293 34.9004 56.6758 35.0244 56.7949 35.1826C56.9141 35.3408 57.0039 35.5244 57.0645 35.7334C57.125 35.9424 57.1553 36.167 57.1553 36.4072V36.6562C57.1553 36.9082 57.1328 37.1514 57.0879 37.3857C57.043 37.6182 56.9697 37.834 56.8682 38.0332C56.7686 38.2305 56.6367 38.4043 56.4727 38.5547C56.3105 38.7031 56.1113 38.8193 55.875 38.9033C55.6406 38.9854 55.3652 39.0264 55.0488 39.0264H54.9844V38.4434ZM57.876 38.6484C57.876 38.5391 57.9131 38.4473 57.9873 38.373C58.0615 38.2969 58.1621 38.2588 58.2891 38.2588C58.418 38.2588 58.5186 38.2969 58.5908 38.373C58.665 38.4473 58.7021 38.5391 58.7021 38.6484C58.7021 38.7578 58.665 38.8496 58.5908 38.9238C58.5186 38.998 58.418 39.0352 58.2891 39.0352C58.1621 39.0352 58.0615 38.998 57.9873 38.9238C57.9131 38.8496 57.876 38.7578 57.876 38.6484ZM57.8789 36.1523C57.8789 36.043 57.916 35.9512 57.9902 35.877C58.0645 35.8008 58.165 35.7627 58.292 35.7627C58.4209 35.7627 58.5215 35.8008 58.5938 35.877C58.668 35.9512 58.7051 36.043 58.7051 36.1523C58.7051 36.2617 58.668 36.3535 58.5938 36.4277C58.5215 36.502 58.4209 36.5391 58.292 36.5391C58.165 36.5391 58.0645 36.502 57.9902 36.4277C57.916 36.3535 57.8789 36.2617 57.8789 36.1523ZM62.3467 37.4795V38.042H59.2705L59.2471 37.6172L61.0869 34.7344H61.6523L61.04 35.7832L59.9824 37.4795H62.3467ZM61.8135 34.7344V39H61.1074V34.7344H61.8135ZM64.7461 34.7197V39H64.04V35.5576L62.9941 35.9121V35.3291L64.6611 34.7197H64.7461Z" fill="black"/>
</g>
<defs>
<clipPath id="clip0_1383_740">
<rect width="138" height="118" fill="white"/>
</clipPath>
</defs>
</svg>
