<svg width="138" height="118" viewBox="0 0 138 118" fill="none" xmlns="http://www.w3.org/2000/svg">
<g clip-path="url(#clip0_1383_728)">
<path d="M110 3.00003H130C132.761 3.00003 135 5.23861 135 8.00003V28" stroke="#4A4A4A" stroke-width="6" stroke-linecap="round"/>
<path d="M3 28V8C3 5.23858 5.23858 3 8 3H28" stroke="#4A4A4A" stroke-width="6" stroke-linecap="round"/>
<path d="M28 115H8C5.23858 115 3 112.761 3 110V90" stroke="#4A4A4A" stroke-width="6" stroke-linecap="round"/>
<path d="M135 90V110C135 112.761 132.761 115 130 115H110" stroke="#4A4A4A" stroke-width="6" stroke-linecap="round"/>
<path d="M84 20H54C50.134 20 47 23.134 47 27V91C47 94.866 50.134 98 54 98H84C87.866 98 91 94.866 91 91V27C91 23.134 87.866 20 84 20Z" stroke="#4A4A4A" stroke-width="2"/>
<path d="M74 22H64C63.4477 22 63 22.4477 63 23C63 23.5523 63.4477 24 64 24H74C74.5523 24 75 23.5523 75 23C75 22.4477 74.5523 22 74 22Z" fill="#4A4A4A"/>
<path d="M76.25 94H61.75C61.3358 94 61 94.3358 61 94.75C61 95.1642 61.3358 95.5 61.75 95.5H76.25C76.6642 95.5 77 95.1642 77 94.75C77 94.3358 76.6642 94 76.25 94Z" fill="#4A4A4A"/>
<path d="M60.6406 42.0723H60.7383C61.1875 42.0723 61.5618 42.0137 61.8613 41.8965C62.1641 41.776 62.4049 41.61 62.584 41.3984C62.763 41.1868 62.8916 40.9378 62.9697 40.6514C63.0479 40.3649 63.0869 40.054 63.0869 39.7188V38.4932C63.0869 38.2035 63.056 37.9495 62.9941 37.7314C62.9355 37.5101 62.8509 37.3262 62.7402 37.1797C62.6328 37.0299 62.5075 36.9176 62.3643 36.8428C62.2243 36.7679 62.0729 36.7305 61.9102 36.7305C61.7311 36.7305 61.57 36.7712 61.4268 36.8525C61.2868 36.9307 61.168 37.0397 61.0703 37.1797C60.9759 37.3164 60.9027 37.4775 60.8506 37.6631C60.8018 37.8454 60.7773 38.0407 60.7773 38.249C60.7773 38.4443 60.8001 38.6331 60.8457 38.8154C60.8945 38.9945 60.9661 39.154 61.0605 39.2939C61.1549 39.4339 61.2738 39.5446 61.417 39.626C61.5602 39.7074 61.7279 39.748 61.9199 39.748C62.1022 39.748 62.2699 39.7139 62.4229 39.6455C62.5758 39.5739 62.7093 39.4779 62.8232 39.3574C62.9372 39.237 63.0267 39.1019 63.0918 38.9521C63.1569 38.8024 63.1927 38.6494 63.1992 38.4932L63.6484 38.6299C63.6484 38.8773 63.5964 39.1214 63.4922 39.3623C63.3913 39.5999 63.2497 39.818 63.0674 40.0166C62.8883 40.2119 62.6784 40.3682 62.4375 40.4854C62.1999 40.6025 61.9411 40.6611 61.6611 40.6611C61.3226 40.6611 61.0231 40.5977 60.7627 40.4707C60.5055 40.3405 60.2907 40.1647 60.1182 39.9434C59.9489 39.722 59.8219 39.4681 59.7373 39.1816C59.6527 38.8952 59.6104 38.5941 59.6104 38.2783C59.6104 37.9365 59.6624 37.6159 59.7666 37.3164C59.8708 37.0169 60.0221 36.7533 60.2207 36.5254C60.4193 36.2943 60.6602 36.1152 60.9434 35.9883C61.2298 35.8581 61.5537 35.793 61.915 35.793C62.2992 35.793 62.6361 35.8678 62.9258 36.0176C63.2155 36.1673 63.4596 36.374 63.6582 36.6377C63.8568 36.9014 64.0065 37.2074 64.1074 37.5557C64.2083 37.904 64.2588 38.2783 64.2588 38.6787V39.0938C64.2588 39.5137 64.2214 39.9189 64.1465 40.3096C64.0716 40.6969 63.9495 41.0566 63.7803 41.3887C63.6143 41.7174 63.3945 42.0072 63.1211 42.2578C62.8509 42.5052 62.5189 42.6989 62.125 42.8389C61.7344 42.9756 61.2754 43.0439 60.748 43.0439H60.6406V42.0723ZM65.46 42.4141C65.46 42.2318 65.5218 42.0788 65.6455 41.9551C65.7692 41.8281 65.9368 41.7646 66.1484 41.7646C66.3633 41.7646 66.5309 41.8281 66.6514 41.9551C66.7751 42.0788 66.8369 42.2318 66.8369 42.4141C66.8369 42.5964 66.7751 42.7493 66.6514 42.873C66.5309 42.9967 66.3633 43.0586 66.1484 43.0586C65.9368 43.0586 65.7692 42.9967 65.6455 42.873C65.5218 42.7493 65.46 42.5964 65.46 42.4141ZM65.4648 38.2539C65.4648 38.0716 65.5267 37.9186 65.6504 37.7949C65.7741 37.668 65.9417 37.6045 66.1533 37.6045C66.3682 37.6045 66.5358 37.668 66.6562 37.7949C66.7799 37.9186 66.8418 38.0716 66.8418 38.2539C66.8418 38.4362 66.7799 38.5892 66.6562 38.7129C66.5358 38.8366 66.3682 38.8984 66.1533 38.8984C65.9417 38.8984 65.7741 38.8366 65.6504 38.7129C65.5267 38.5892 65.4648 38.4362 65.4648 38.2539ZM72.9111 40.4658V41.4033H67.7842L67.7451 40.6953L70.8115 35.8906H71.7539L70.7334 37.6387L68.9707 40.4658H72.9111ZM72.0225 35.8906V43H70.8457V35.8906H72.0225ZM76.9102 35.8662V43H75.7334V37.2627L73.9902 37.8535V36.8818L76.7686 35.8662H76.9102Z" fill="#4A4A4A"/>
</g>
<defs>
<clipPath id="clip0_1383_728">
<rect width="138" height="118" fill="white"/>
</clipPath>
</defs>
</svg>
