<svg width="25" height="25" viewBox="0 0 25 25" fill="none" xmlns="http://www.w3.org/2000/svg">
<g filter="url(#filter0_b_1526_17955)">
<circle cx="12.5" cy="12.5" r="12.5" fill="#525252" fill-opacity="0.5"/>
</g>
<path d="M4.83532 11.7207C6.89042 8.27554 9.74405 6.65643 12.5 6.65645C15.2559 6.65647 18.1096 8.27563 20.1647 11.7208L21.55 10.859C19.2611 7.022 15.9294 5.00003 12.5 5C9.07063 4.99998 5.73892 7.0219 3.45005 10.8589L4.83532 11.7207ZM3.45005 14.141C5.73892 17.978 9.07062 20 12.5 20C15.9294 20 19.2611 17.9781 21.55 14.1411L20.1647 13.2793C18.1096 16.7244 15.2559 18.3436 12.5 18.3436C9.74406 18.3436 6.89042 16.7244 4.83532 13.2792L3.45005 14.141ZM3.45005 10.8589C2.84998 11.8649 2.84998 13.135 3.45005 14.141L4.83532 13.2792C4.55098 12.8026 4.55098 12.1974 4.83532 11.7207L3.45005 10.8589ZM20.1647 11.7208C20.449 12.1975 20.449 12.8027 20.1647 13.2793L21.55 14.1411C22.15 13.1351 22.15 11.865 21.55 10.859L20.1647 11.7208ZM14.6177 12.5C14.6177 13.6944 13.6695 14.6626 12.5 14.6626V16.319C14.5655 16.319 16.2398 14.6092 16.2398 12.5H14.6177ZM12.5 14.6626C11.3304 14.6626 10.3823 13.6944 10.3823 12.5H8.76026C8.76026 14.6092 10.4346 16.319 12.5 16.319V14.6626ZM10.3823 12.5C10.3823 11.3057 11.3304 10.3375 12.5 10.3375V8.68101C10.4346 8.68101 8.76026 10.3909 8.76026 12.5H10.3823ZM12.5 10.3375C13.6695 10.3375 14.6177 11.3057 14.6177 12.5H16.2398C16.2398 10.3909 14.5655 8.68101 12.5 8.68101V10.3375Z" fill="white"/>
<defs>
<filter id="filter0_b_1526_17955" x="-10" y="-10" width="45" height="45" filterUnits="userSpaceOnUse" color-interpolation-filters="sRGB">
<feFlood flood-opacity="0" result="BackgroundImageFix"/>
<feGaussianBlur in="BackgroundImageFix" stdDeviation="5"/>
<feComposite in2="SourceAlpha" operator="in" result="effect1_backgroundBlur_1526_17955"/>
<feBlend mode="normal" in="SourceGraphic" in2="effect1_backgroundBlur_1526_17955" result="shape"/>
</filter>
</defs>
</svg>
