<svg width="81" height="80" viewBox="0 0 81 80" fill="none" xmlns="http://www.w3.org/2000/svg">
<g clip-path="url(#clip0_1386_895)">
<path d="M14.8981 6.44812e-06L66.5648 6.44812e-06C68.4257 -0.00179242 70.2686 0.372807 71.9882 1.10237C73.7078 1.83193 75.2702 2.90212 76.586 4.25171C77.9019 5.60129 78.9453 7.20377 79.6566 8.96743C80.368 10.7311 80.7332 12.6213 80.7314 14.5299L80.7314 65.4701C80.7332 67.3787 80.368 69.2689 79.6566 71.0326C78.9453 72.7962 77.9019 74.3987 76.586 75.7483C75.2702 77.0979 73.7078 78.1681 71.9882 78.8976C70.2686 79.6272 68.4257 80.0018 66.5648 80L14.8981 80C13.0372 80.0018 11.1943 79.6272 9.47469 78.8976C7.75512 78.1681 6.19271 77.0979 4.87686 75.7483C3.56101 74.3987 2.51757 72.7962 1.80625 71.0326C1.09493 69.2689 0.729698 67.3787 0.731452 65.4701L0.731452 14.5299C0.729698 12.6213 1.09493 10.7311 1.80625 8.96743C2.51757 7.20377 3.56101 5.60129 4.87686 4.25171C6.19271 2.90212 7.75512 1.83193 9.47469 1.10237C11.1943 0.372807 13.0372 -0.00179242 14.8981 6.44812e-06V6.44812e-06Z" fill="#F0F0F0"/>
<path fill-rule="evenodd" clip-rule="evenodd" d="M40.7315 13.3123C25.6211 13.3123 13.3682 25.5625 13.3682 40.6756C13.3682 52.7659 21.2086 63.0224 32.0809 66.6411C33.4479 66.8948 33.95 66.0475 33.95 65.3247C33.95 64.6722 33.9246 62.5167 33.9129 60.2302C26.3004 61.8855 24.694 57.0017 24.694 57.0017C23.4493 53.8389 21.6558 52.9979 21.6558 52.9979C19.1727 51.2996 21.843 51.3349 21.843 51.3349C24.5903 51.5275 26.0375 54.1547 26.0375 54.1547C28.4781 58.3371 32.4388 57.1281 34.0003 56.4294C34.2459 54.6609 34.955 53.4533 35.7376 52.77C29.6598 52.079 23.2703 49.7322 23.2703 39.2474C23.2703 36.2599 24.3397 33.8189 26.0901 31.9022C25.8055 31.2135 24.8689 28.4304 26.3547 24.6613C26.3547 24.6613 28.6521 23.9259 33.8811 27.4661C36.0643 26.8594 38.4056 26.5544 40.7315 26.544C43.056 26.5544 45.3987 26.8585 47.5859 27.4652C52.8086 23.925 55.1032 24.6604 55.1032 24.6604C56.5927 28.429 55.6561 31.2126 55.3719 31.9013C57.1264 33.818 58.1881 36.259 58.1881 39.2465C58.1881 49.7563 51.7868 52.0699 45.6936 52.7478C46.6756 53.5969 47.5501 55.2626 47.5501 57.8151C47.5501 61.4763 47.5184 64.423 47.5184 65.3243C47.5184 66.0524 48.0114 66.9057 49.3979 66.637C60.2639 63.0147 68.0952 52.7614 68.0952 40.6756C68.0948 25.5635 55.8432 13.3128 40.7315 13.3128V13.3123Z" fill="#181616"/>
<path d="M23.7323 52.5996C23.6721 52.7356 23.4582 52.7763 23.2634 52.6834C23.064 52.5946 22.953 52.4093 23.0173 52.2729C23.0762 52.1324 23.2905 52.0939 23.4886 52.1877C23.6879 52.277 23.8012 52.4641 23.7319 52.6001L23.7323 52.5996ZM24.8407 53.8362C24.7106 53.9572 24.4555 53.901 24.2824 53.7093C24.103 53.519 24.0695 53.2639 24.2022 53.1411C24.3373 53.0206 24.5847 53.0777 24.7641 53.268C24.9426 53.461 24.978 53.7139 24.8411 53.8366L24.8407 53.8362ZM25.92 55.4117C25.7524 55.5286 25.4778 55.4194 25.3083 55.1761C25.1407 54.9323 25.1407 54.64 25.3128 54.5236C25.4819 54.4067 25.7524 54.5123 25.9246 54.7533C26.0913 55.0003 26.0913 55.2925 25.92 55.4113V55.4117ZM27.3977 56.9347C27.2481 57.1001 26.9282 57.0556 26.6944 56.8304C26.4556 56.6098 26.389 56.2958 26.539 56.1308C26.6912 55.965 27.0125 56.0112 27.2477 56.235C27.4865 56.4553 27.5585 56.7697 27.3986 56.9342L27.3977 56.9347ZM29.4367 57.8187C29.3701 58.033 29.0629 58.1305 28.7525 58.0389C28.443 57.9451 28.2405 57.6946 28.3039 57.478C28.3674 57.2618 28.6768 57.1608 28.989 57.2582C29.2985 57.3515 29.5011 57.6008 29.4367 57.8187ZM31.6765 57.9823C31.6842 58.2079 31.4214 58.3946 31.0965 58.3992C30.7689 58.4069 30.5038 58.2238 30.5007 58.0018C30.5007 57.7738 30.758 57.5894 31.0852 57.5831C31.4101 57.5772 31.677 57.7584 31.677 57.9818L31.6765 57.9823ZM33.76 57.6279C33.799 57.8477 33.5729 58.0738 33.2498 58.1341C32.9326 58.193 32.6381 58.0561 32.5973 57.8382C32.5583 57.6125 32.7885 57.3864 33.1057 57.328C33.4292 57.2722 33.7192 57.405 33.76 57.6284V57.6279Z" fill="#181616"/>
</g>
<defs>
<clipPath id="clip0_1386_895">
<rect width="80" height="80" fill="white" transform="translate(0.731445)"/>
</clipPath>
</defs>
</svg>
